<?xml version="1.0" encoding="UTF-8" standalone="no"?>
<!-- Created with Inkscape (http://www.inkscape.org/) -->

<svg
   width="64"
   height="64"
   viewBox="0 0 16.933333 16.933333"
   version="1.1"
   id="svg5"
   inkscape:version="1.2.2 (b0a8486541, 2022-12-01)"
   sodipodi:docname="800147.svg"
   inkscape:export-filename="800147.png"
   inkscape:export-xdpi="96"
   inkscape:export-ydpi="96"
   xmlns:inkscape="http://www.inkscape.org/namespaces/inkscape"
   xmlns:sodipodi="http://sodipodi.sourceforge.net/DTD/sodipodi-0.dtd"
   xmlns="http://www.w3.org/2000/svg"
   xmlns:svg="http://www.w3.org/2000/svg">
  <sodipodi:namedview
     id="namedview7"
     pagecolor="#505050"
     bordercolor="#eeeeee"
     borderopacity="1"
     inkscape:showpageshadow="0"
     inkscape:pageopacity="0"
     inkscape:pagecheckerboard="0"
     inkscape:deskcolor="#505050"
     inkscape:document-units="px"
     showgrid="true"
     inkscape:zoom="7.341233"
     inkscape:cx="60.684629"
     inkscape:cy="111.08488"
     inkscape:window-width="1242"
     inkscape:window-height="634"
     inkscape:window-x="26"
     inkscape:window-y="32"
     inkscape:window-maximized="0"
     inkscape:current-layer="layer1">
    <inkscape:grid
       type="xygrid"
       id="grid77"
       spacingx="1.0583333"
       spacingy="1.0583333"
       dotted="true"
       originx="0"
       originy="0"
       empspacing="4" />
  </sodipodi:namedview>
  <defs
     id="defs2" />
  <g
     inkscape:label="Слой 1"
     inkscape:groupmode="layer"
     id="layer1">
    <path
       id="rect286"
       style="fill:#241f31;stroke-width:2.11666667;stroke-dasharray:none;stroke:#ffffff;stroke-opacity:1;paint-order:markers stroke fill;stroke-linecap:round;stroke-linejoin:round"
       d="M 2.1166667 1.0583333 C 1.5303513 1.0583333 1.0583333 1.5303513 1.0583333 2.1166667 L 1.0583333 3.175 C 1.0583333 3.3680476 1.1098366 3.5486696 1.19941 3.7041667 C 1.1098366 3.8596637 1.0583333 4.0402858 1.0583333 4.2333333 L 1.0583333 6.35 C 1.0583333 6.9363154 1.5303513 7.4083333 2.1166667 7.4083333 L 4.2333333 7.4083333 C 4.8196487 7.4083333 5.2916667 6.9363154 5.2916667 6.35 L 5.2916667 4.2333333 C 5.2916667 4.0402858 5.2401634 3.8596637 5.15059 3.7041667 C 5.2401634 3.5486696 5.2916667 3.3680476 5.2916667 3.175 L 5.2916667 2.1166667 C 5.2916667 1.5303513 4.8196487 1.0583333 4.2333333 1.0583333 L 2.1166667 1.0583333 z M 2.1166667 2.1166667 L 4.2333333 2.1166667 L 4.2333333 3.175 L 2.1166667 3.175 L 2.1166667 2.1166667 z M 2.1166667 4.2333333 L 4.2333333 4.2333333 L 4.2333333 6.35 L 2.1166667 6.35 L 2.1166667 4.2333333 z " />
    <path
       id="rect398"
       style="fill:#241f31;stroke-width:2.11666667;stroke-dasharray:none;stroke:#ffffff;stroke-opacity:1;paint-order:markers stroke fill;stroke-linecap:round;stroke-linejoin:round"
       d="m 7.4083332,1.0583332 c -0.586316,0 -1.0583333,0.4720173 -1.0583333,1.0583333 v 4.2333334 c 0,0.586316 0.4720173,1.0583333 1.0583333,1.0583333 h 2.1166667 c 0.5863161,0 1.0583331,-0.4720173 1.0583331,-1.0583333 V 2.1166665 c 0,-0.586316 -0.472017,-1.0583333 -1.0583331,-1.0583333 z m 0,1.0583333 H 9.5249999 V 6.3499999 H 7.4083332 Z" />
    <path
       id="rect400"
       style="fill:#241f31;stroke-width:2.11666667;stroke-dasharray:none;stroke:#ffffff;stroke-opacity:1;paint-order:markers stroke fill;stroke-linecap:round;stroke-linejoin:round"
       d="m 12.7,1.0583332 c -0.586316,0 -1.058334,0.4720173 -1.058334,1.0583333 v 4.2333334 c 0,0.586316 0.472018,1.0583333 1.058334,1.0583333 h 2.116666 c 0.586316,0 1.058334,-0.4720173 1.058334,-1.0583333 V 2.1166665 c 0,-0.586316 -0.472018,-1.0583333 -1.058334,-1.0583333 z m 0,1.0583333 h 2.116666 V 6.3499999 H 12.7 Z" />
    <path
       id="path462"
       style="fill:#241f31;stroke:#ffffff;stroke-width:2.11667;stroke-linecap:round;stroke-linejoin:round;stroke-dasharray:none;stroke-opacity:1;paint-order:markers stroke fill"
       d="M 3.1749998,9.5249992 A 1.0583333,1.0583333 0 0 1 2.1166665,10.583332 H 1.0583331 v 1.058333 h 1.0583334 a 2.1166666,2.1166666 0 0 0 1.0583333,-0.284737 v 3.459737 H 1.0583331 v 1.058334 H 3.1749998 4.2333331 5.2916665 V 14.816665 H 4.2333331 V 9.5249992 Z" />
    <path
       id="rect927"
       style="fill:#241f31;stroke:#ffffff;stroke-width:2.11667;stroke-linecap:round;stroke-linejoin:round;stroke-opacity:1;paint-order:markers stroke fill"
       d="m 11.641666,9.5249997 v 1.0583343 1.058333 H 12.7 v -1.058333 h 2.005562 A 2.1166666,6.3499999 0 0 0 13.758333,15.875 h 1.058333 A 1.0583333,5.2916665 0 0 1 15.875,10.583334 V 9.5249997 H 12.7 Z" />
    <path
       id="rect846-3-5"
       style="fill:#241f31;stroke:#ffffff;stroke-width:2.11666667;stroke-linecap:round;stroke-linejoin:round;stroke-opacity:1;paint-order:markers stroke fill;stroke-dasharray:none"
       d="m 6.3499993,9.5249995 v 4.2333325 a 1.0583333,1.0583333 0 0 0 1.058333,1.058334 H 9.524999 v 1.058333 h 1.058334 V 11.641666 H 9.524999 v 2.116666 H 8.4666653 7.4083323 V 12.699999 9.5249995 Z" />
  </g>
</svg>
