<?xml version="1.0" encoding="UTF-8" standalone="no"?>
<!-- Created with Inkscape (http://www.inkscape.org/) -->

<svg
   width="64"
   height="64"
   viewBox="0 0 16.933333 16.933333"
   version="1.1"
   id="svg5"
   inkscape:version="1.3.2 (091e20ef0f, 2023-11-25)"
   sodipodi:docname="favicon.svg"
   inkscape:export-filename="favicon.png"
   inkscape:export-xdpi="96"
   inkscape:export-ydpi="96"
   xmlns:inkscape="http://www.inkscape.org/namespaces/inkscape"
   xmlns:sodipodi="http://sodipodi.sourceforge.net/DTD/sodipodi-0.dtd"
   xmlns="http://www.w3.org/2000/svg"
   xmlns:svg="http://www.w3.org/2000/svg">
  <sodipodi:namedview
     id="namedview7"
     pagecolor="#505050"
     bordercolor="#eeeeee"
     borderopacity="1"
     inkscape:showpageshadow="0"
     inkscape:pageopacity="0"
     inkscape:pagecheckerboard="0"
     inkscape:deskcolor="#505050"
     inkscape:document-units="px"
     showgrid="true"
     inkscape:zoom="1.4142136"
     inkscape:cx="70.357123"
     inkscape:cy="-5.3033007"
     inkscape:window-width="1920"
     inkscape:window-height="1011"
     inkscape:window-x="0"
     inkscape:window-y="0"
     inkscape:window-maximized="1"
     inkscape:current-layer="layer1">
    <inkscape:grid
       type="xygrid"
       id="grid77"
       spacingx="1.0583333"
       spacingy="1.0583333"
       dotted="true"
       originx="0"
       originy="0"
       empspacing="4"
       units="px"
       visible="true" />
  </sodipodi:namedview>
  <defs
     id="defs2" />
  <g
     inkscape:label="Слой 1"
     inkscape:groupmode="layer"
     id="layer1">
    <g
       id="rect286"
       transform="translate(-2.6155676e-4)">
      <path
         style="color:#000000;fill:#ffffff;stroke-linecap:round;stroke-linejoin:round;-inkscape-stroke:none;paint-order:markers stroke fill"
         d="M 2.1171875,0 C 0.96285944,0 0,0.96285944 0,2.1171875 V 3.1757813 C 0,3.366006 0.09260676,3.5256037 0.140625,3.703125 0.09228629,3.881199 0,4.0415396 0,4.2324219 v 2.1171875 c 0,1.154328 0.96285944,2.1171875 2.1171875,2.1171875 H 3.1757813 A 1.0584391,1.0584391 0 0 0 2.1171875,9.5253906 H 1.0585937 A 1.0584391,1.0584391 0 0 0 0,10.583984 v 1.058594 a 1.0584391,1.0584391 0 0 0 1.0585937,1.056641 h 1.0585938 v 1.058594 H 1.0585937 A 1.0584391,1.0584391 0 0 0 0,14.816406 V 15.875 a 1.0584391,1.0584391 0 0 0 1.0585937,1.058594 H 3.1757813 4.2324219 5.2910156 A 1.0584391,1.0584391 0 0 0 6.3496094,15.875 V 15.431641 C 6.6763363,15.639168 6.997995,15.875 7.4082031,15.875 h 1.0585938 a 1.0584391,1.0584391 0 0 0 1.0585937,1.058594 H 10.583984 A 1.0584391,1.0584391 0 0 0 11.642578,15.875 v -3.175781 h 1.056641 a 1.0584391,1.0584391 0 0 0 0.371094,-0.371094 c -0.227905,1.084576 -0.371015,2.26497 -0.371094,3.546875 a 1.0584391,1.0584391 0 0 0 1.058594,1.058594 h 1.058593 A 1.0584391,1.0584391 0 0 0 15.875,15.875 c 0,-1.404056 0.117844,-2.679067 0.289062,-3.535156 0.08561,-0.428045 0.192936,-0.755599 0.25586,-0.888672 0.03146,-0.06654 0.05494,-0.07969 -0.002,-0.02148 -0.05689,0.0582 -0.258553,0.212891 -0.542969,0.21289 a 1.0584391,1.0584391 0 0 0 1.058594,-1.058594 V 9.5253906 A 1.0584391,1.0584391 0 0 0 15.875,8.4667969 h -1.058594 c 1.154328,0 2.117188,-0.96286 2.117188,-2.1171875 V 2.1171875 C 16.933594,0.96286002 15.970734,0 14.816406,0 H 12.699219 C 12.033026,0 11.503499,0.3624893 11.113281,0.85546875 10.723075,0.36220269 10.191811,0 9.5253906,0 H 7.4082031 C 6.7417827,0 6.2105185,0.36220268 5.8203125,0.85546875 5.430095,0.36248935 4.8986149,0 4.2324219,0 Z m 3.703125,7.6113281 c 0.390206,0.4932661 0.9214702,0.8554688 1.5878906,0.8554688 h 2.1171875 c 0.6664204,0 1.1976844,-0.3622027 1.5878904,-0.8554688 0.390218,0.4929795 0.919745,0.8554688 1.585938,0.8554688 H 11.642578 A 1.0584391,1.0584391 0 0 0 10.583984,9.5253906 V 10.583984 H 9.5253906 A 1.0584391,1.0584391 0 0 0 8.4667969,11.642578 V 9.5253906 A 1.0584391,1.0584391 0 0 0 7.4082031,8.4667969 H 6.3496094 A 1.0584391,1.0584391 0 0 0 5.2910156,9.5253906 1.0584391,1.0584391 0 0 0 4.2324219,8.4667969 c 0.666193,0 1.1976731,-0.3624894 1.5878906,-0.8554688 z"
         id="path1" />
      <path
         style="color:#000000;fill:#241f31;stroke-linecap:round;stroke-linejoin:round;-inkscape-stroke:none;paint-order:markers stroke fill"
         d="m 2.1166666,1.0583333 c -0.5863148,0 -1.0583333,0.4720185 -1.0583333,1.0583333 v 1.0583333 c 0,0.1930474 0.051503,0.3736697 0.1410767,0.5291667 C 1.109837,3.8596634 1.0583333,4.0402859 1.0583333,4.2333332 v 2.1166667 c 0,0.5863148 0.4720185,1.0583333 1.0583333,1.0583333 h 2.1166666 c 0.5863149,0 1.0583334,-0.4720185 1.0583334,-1.0583333 V 4.2333332 c 0,-0.1930473 -0.051503,-0.3736698 -0.1410767,-0.5291666 0.089573,-0.155497 0.1410767,-0.3361193 0.1410767,-0.5291667 V 2.1166666 c 0,-0.5863148 -0.4720185,-1.0583333 -1.0583334,-1.0583333 z m 5.2916666,0 c -0.5863154,0 -1.0583333,0.4720179 -1.0583333,1.0583333 v 4.2333333 c 0,0.5863154 0.4720179,1.0583333 1.0583333,1.0583333 h 2.1166666 c 0.5863152,0 1.0583332,-0.4720179 1.0583332,-1.0583333 V 2.1166666 c 0,-0.5863154 -0.472018,-1.0583333 -1.0583332,-1.0583333 z m 5.2916668,0 c -0.586316,0 -1.058334,0.4720179 -1.058334,1.0583333 v 4.2333333 c 0,0.5863154 0.472018,1.0583333 1.058334,1.0583333 h 2.116666 c 0.586316,0 1.058334,-0.4720179 1.058334,-1.0583333 V 2.1166666 c 0,-0.5863154 -0.472018,-1.0583333 -1.058334,-1.0583333 z M 2.1166666,2.1166666 H 4.2333332 V 3.1749999 H 2.1166666 Z m 5.2916666,0 H 9.5249998 V 6.3499999 H 7.4083332 Z m 5.2916668,0 h 2.116666 V 6.3499999 H 12.7 Z M 2.1166666,4.2333332 H 4.2333332 V 6.3499999 H 2.1166666 Z M 3.1749999,9.5249998 A 1.0583333,1.0583333 0 0 1 2.1166666,10.583333 H 1.0583333 v 1.058333 h 1.0583333 a 2.1166666,2.1166666 0 0 0 1.0583333,-0.284737 v 3.459737 H 1.0583333 V 15.875 H 3.1749999 4.2333332 5.2916666 V 14.816666 H 4.2333332 V 9.5249998 Z m 3.175,0 v 4.2333332 a 1.0583333,1.0583333 0 0 0 1.0583333,1.058333 H 9.5249998 V 15.875 H 10.583333 V 11.641666 H 9.5249998 v 2.116667 H 8.4666665 7.4083332 V 12.7 9.5249998 Z m 5.2916661,0 v 1.0583332 1.058333 H 12.7 v -1.058333 h 2.005562 A 2.1166666,6.3499999 0 0 0 13.758333,15.875 h 1.058333 A 1.0583333,5.2916665 0 0 1 15.875,10.583333 V 9.5249998 H 12.7 Z"
         id="path2" />
    </g>
    <g
       id="g11">
      <g
         id="g10" />
    </g>
  </g>
</svg>
