<?xml version="1.0" encoding="UTF-8" standalone="no"?>
<!-- Generator: Gravit.io -->
<svg xmlns="http://www.w3.org/2000/svg" xmlns:xlink="http://www.w3.org/1999/xlink" style="isolation:isolate" viewBox="0 0 128 128" width="128" height="128"><defs><clipPath id="_clipPath_ZboCzsOgV6V8SeC1aS0v3ItT5aDAiBDp"><rect width="128" height="128"/></clipPath></defs><g clip-path="url(#_clipPath_ZboCzsOgV6V8SeC1aS0v3ItT5aDAiBDp)"><path d="M 40 8 L 88 8 C 96.831 8 104 15.169 104 24 L 104 104 C 104 112.831 96.831 120 88 120 L 40 120 C 31.169 120 24 112.831 24 104 L 24 24 C 24 15.169 31.169 8 40 8 Z" style="stroke:none;fill:#5D5D5D;stroke-miterlimit:10;"/><path d="M 40 16 L 88 16 C 92.415 16 96 19.585 96 24 L 96 104 C 96 108.415 92.415 112 88 112 L 40 112 C 35.585 112 32 108.415 32 104 L 32 24 C 32 19.585 35.585 16 40 16 Z" style="fill:none;stroke:#FFFFFF;stroke-width:2;stroke-linecap:square;stroke-miterlimit:3;"/></g></svg>